<?xml version="1.0" encoding="UTF-8"?>
<svg width="60" height="60" xmlns="http://www.w3.org/2000/svg">
	<defs>
		<linearGradient id="grad-lin">
			<stop offset="0%" stop-color="#fff94c"/>
			<stop offset="15%" stop-color="#ffdb28"/>
			<stop offset="28%" stop-color="#ffc300"/>
			<stop offset="32%" stop-color="#ffdb28"/>
			<stop offset="51%" stop-color="#ffdb28" stop-opacity="0"/>
		</linearGradient>
		<radialGradient id="grad-rad">
			<stop offset="0%" stop-color="#ffdb28"/>
			<stop offset="36%" stop-color="#ffdb28"/>
			<stop offset="42%" stop-color="#ffc300"/>
			<stop offset="72%" stop-color="#ffdb28"/>
			<stop offset="100%" stop-color="#fff94c"/>
		</radialGradient>
		<line id="line" x1="30" y1="1" x2="30" y2="8" stroke="black"/>
		<clipPath id="circle">
			<circle cx="30" cy="30" r="29"/>
		</clipPath>
	</defs>
	<g>
		<circle cx="30" cy="30" r="29" fill="url(#grad-rad)"/>
		<circle cx="30" cy="30" r="29" fill="url(#grad-lin)"/>
		<line x1="1" y1="15" x2="17" y2="15" stroke="black" clip-path="url(#circle)"/>
		<line x1="1" y1="20" x2="8" y2="20" stroke="black" clip-path="url(#circle)"/>
		<line x1="1" y1="25" x2="8" y2="25" stroke="black" clip-path="url(#circle)"/>
		<line x1="1" y1="30" x2="17" y2="30" stroke="black"/>
		<line x1="1" y1="35" x2="8" y2="35" stroke="black" clip-path="url(#circle)"/>
		<line x1="1" y1="40" x2="8" y2="40" stroke="black" clip-path="url(#circle)"/>
		<line x1="1" y1="45" x2="17" y2="45" stroke="black" clip-path="url(#circle)"/>

		<line x1="30" y1="1" x2="30" y2="13" stroke="black"/>
		<use x="0" y="0" transform="rotate(30, 30, 30)" xlink:href="#line"/>
		<use x="0" y="0" transform="rotate(60, 30, 30)" xlink:href="#line"/>
		<line x1="59" y1="30" x2="47" y2="30" stroke="black"/>
		<use x="0" y="0" transform="rotate(120, 30, 30)" xlink:href="#line"/>
		<use x="0" y="0" transform="rotate(150, 30, 30)" xlink:href="#line"/>
		<line x1="30" y1="59" x2="30" y2="47" stroke="black"/>
		
		<text x="19" y="17" font-family="sans-serif" font-size="8">1</text>
		<text x="19" y="32" font-family="sans-serif" font-size="8">2</text>
		<text x="19" y="48" font-family="sans-serif" font-size="8">3</text>
		<text x="28" y="20" font-family="sans-serif" font-size="6">0°</text>
		<text x="37" y="32" font-family="sans-serif" font-size="6">90°</text>
		<text x="28" y="45" font-family="sans-serif" font-size="6">180°</text>
	</g>
</svg>
