<?xml version="1.0" standalone="no"?>
<!DOCTYPE svg PUBLIC "-//W3C//DTD SVG 20010904//EN"
 "http://www.w3.org/TR/2001/REC-SVG-20010904/DTD/svg10.dtd">
<svg version="1.0" xmlns="http://www.w3.org/2000/svg"
 width="16.000000pt" height="16.000000pt" viewBox="0 0 16.000000 16.000000"
 preserveAspectRatio="xMidYMid meet">
<metadata>
Created by potrace 1.11, written by Peter Selinger 2001-2013
</metadata>
<g transform="translate(0.000000,16.000000) scale(0.003125,-0.003125)"
fill="#000000" stroke="none">
<path d="M2517 5034 c-4 -4 -7 -236 -7 -516 l0 -508 50 0 50 0 -2 513 -3 512
-40 3 c-23 2 -44 0 -48 -4z"/>
<path d="M3606 4466 c-80 -139 -146 -256 -146 -259 0 -4 18 -16 39 -27 l40
-20 64 113 c36 61 103 179 151 260 l85 148 -32 19 c-18 11 -37 20 -43 20 -6 0
-77 -114 -158 -254z"/>
<path d="M1794 4095 c-12 -13 -35 -27 -50 -30 -51 -11 -54 -14 -54 -40 0 -21
5 -25 30 -25 17 0 44 7 60 15 l30 16 0 -191 0 -190 30 0 30 0 0 235 0 235 -27
0 c-17 0 -37 -10 -49 -25z"/>
<path d="M470 3840 l0 -50 490 0 490 0 0 50 0 50 -490 0 -490 0 0 -50z"/>
<path d="M4418 3688 l-258 -150 20 -39 c11 -21 23 -39 27 -39 16 0 513 294
513 304 0 11 -37 77 -42 75 -2 -1 -119 -68 -260 -151z"/>
<path d="M2461 3714 c-36 -25 -51 -75 -51 -164 0 -131 33 -180 120 -180 87 0
120 49 120 180 0 131 -33 180 -120 180 -26 0 -56 -7 -69 -16z m122 -56 c18
-21 23 -59 18 -143 -4 -61 -15 -83 -47 -95 -35 -14 -69 3 -84 40 -17 41 -17
139 0 180 22 52 75 61 113 18z"/>
<path d="M2717 3712 c-23 -25 -22 -85 1 -105 25 -23 85 -22 105 1 23 25 22 85
-1 105 -25 23 -85 22 -105 -1z m75 -29 c10 -9 18 -20 18 -24 0 -10 -29 -39
-40 -39 -5 0 -16 7 -24 16 -9 8 -16 19 -16 24 0 10 28 40 37 40 4 0 15 -7 25
-17z"/>
<path d="M250 3415 l0 -45 220 0 220 0 0 45 0 45 -220 0 -220 0 0 -45z"/>
<path d="M126 3008 c-3 -13 -6 -33 -6 -45 l0 -23 285 0 285 0 0 45 0 45 -279
0 -279 0 -6 -22z"/>
<path d="M1693 2838 c-33 -11 -41 -30 -24 -57 7 -11 15 -11 44 -2 83 28 159 9
169 -41 10 -53 -12 -90 -123 -203 -83 -86 -109 -118 -109 -138 l0 -27 155 0
155 0 0 25 0 25 -106 0 -106 0 81 86 c96 101 121 145 121 212 0 55 -22 92 -70
117 -33 17 -138 18 -187 3z"/>
<path d="M3224 2692 c-31 -25 -44 -55 -44 -102 0 -78 41 -120 116 -120 19 0
44 5 55 10 16 9 19 7 19 -9 0 -11 -10 -32 -23 -47 -23 -27 -36 -29 -127 -21
-35 3 -42 -38 -8 -47 42 -11 108 -6 139 10 88 45 94 285 8 329 -38 20 -109 19
-135 -3z m121 -52 c8 -9 20 -31 24 -48 8 -25 5 -34 -12 -50 -31 -27 -52 -33
-86 -21 -58 21 -60 118 -3 137 33 11 56 6 77 -18z"/>
<path d="M3511 2694 c-36 -25 -51 -75 -51 -164 0 -131 33 -180 120 -180 87 0
120 49 120 180 0 131 -33 180 -120 180 -26 0 -56 -7 -69 -16z m122 -56 c18
-21 23 -59 18 -143 -4 -61 -15 -83 -47 -95 -35 -14 -69 3 -84 40 -17 41 -17
139 0 180 22 52 75 61 113 18z"/>
<path d="M3767 2692 c-23 -25 -22 -85 1 -105 25 -23 85 -22 105 1 23 25 22 85
-1 105 -25 23 -85 22 -105 -1z m75 -29 c10 -9 18 -20 18 -24 0 -10 -29 -39
-40 -39 -5 0 -16 7 -24 16 -9 8 -16 19 -16 24 0 10 28 40 37 40 4 0 15 -7 25
-17z"/>
<path d="M84 2596 c-3 -8 -4 -29 -2 -48 l3 -33 683 -3 682 -2 0 50 0 50 -680
0 c-575 0 -681 -2 -686 -14z"/>
<path d="M4010 2560 l0 -50 513 2 512 3 0 45 0 45 -512 3 -513 2 0 -50z"/>
<path d="M120 2158 c0 -13 3 -33 6 -45 l6 -23 279 0 279 0 0 45 0 45 -285 0
-285 0 0 -22z"/>
<path d="M250 1705 l0 -45 220 0 220 0 0 45 0 45 -220 0 -220 0 0 -45z"/>
<path d="M4180 1621 l-20 -39 261 -151 260 -150 19 32 c11 18 20 37 20 43 0
10 -497 304 -513 304 -4 0 -16 -18 -27 -39z"/>
<path d="M2520 1585 c-7 -8 -27 -19 -44 -23 -42 -11 -51 -52 -11 -52 14 0 35
5 46 10 18 10 19 6 19 -135 0 -138 1 -145 20 -145 19 0 20 7 20 180 0 169 -1
180 -19 180 -10 0 -24 -7 -31 -15z"/>
<path d="M2725 1575 c-30 -29 -34 -89 -9 -116 15 -17 15 -20 -5 -45 -24 -30
-28 -99 -8 -124 36 -47 118 -65 170 -39 62 32 78 119 31 166 -23 23 -24 27
-10 42 26 29 20 88 -10 116 -39 36 -124 36 -159 0z m110 -25 c19 0 37 -34 29
-55 -15 -37 -103 -37 -118 1 -12 31 28 70 62 58 8 -2 20 -4 27 -4z m-1 -140
c14 -5 32 -20 41 -33 34 -52 -30 -108 -96 -85 -70 24 -54 99 28 127 1 1 13 -3
27 -9z"/>
<path d="M3021 1584 c-36 -25 -51 -75 -51 -164 0 -131 33 -180 120 -180 87 0
120 49 120 180 0 131 -33 180 -120 180 -26 0 -56 -7 -69 -16z m122 -56 c18
-21 23 -59 18 -143 -4 -61 -15 -83 -47 -95 -35 -14 -69 3 -84 40 -17 41 -17
139 0 180 22 52 75 61 113 18z"/>
<path d="M3277 1582 c-23 -25 -22 -85 1 -105 25 -23 85 -22 105 1 23 25 22 85
-1 105 -25 23 -85 22 -105 -1z m75 -29 c10 -9 18 -20 18 -24 0 -10 -29 -39
-40 -39 -11 0 -40 29 -40 40 0 10 28 40 37 40 4 0 15 -7 25 -17z"/>
<path d="M1693 1468 c-33 -11 -41 -30 -24 -57 8 -12 14 -12 39 -2 50 21 120
17 144 -6 40 -40 12 -113 -42 -113 -34 0 -50 -12 -50 -36 0 -20 6 -25 41 -30
55 -9 90 -40 91 -81 3 -93 -96 -123 -224 -68 -23 9 -38 -42 -17 -56 26 -17 84
-29 139 -29 104 0 170 59 170 152 0 44 -4 54 -35 85 l-35 35 25 26 c19 18 25
35 25 66 -1 85 -50 126 -150 125 -36 -1 -80 -6 -97 -11z"/>
<path d="M470 1280 l0 -50 490 0 490 0 0 50 0 50 -490 0 -490 0 0 -50z"/>
<path d="M2512 598 l3 -513 45 0 45 0 3 513 2 512 -50 0 -50 0 2 -512z"/>
<path d="M3498 939 c-21 -11 -38 -22 -38 -26 0 -16 294 -513 304 -513 6 0 25
9 43 20 l32 19 -85 148 c-48 81 -115 199 -151 261 -36 61 -65 112 -66 112 -1
-1 -19 -10 -39 -21z"/>
</g>
</svg>
